<svg width="20" height="20" viewBox="0 0 20 20" fill="none" xmlns="http://www.w3.org/2000/svg">
<g opacity="0.8">
<path d="M17.0807 10.8334C17.7711 10.8334 18.3307 11.3931 18.3307 12.0834V17.0834C18.3307 17.7738 17.7711 18.3334 17.0807 18.3334H12.0807C11.3904 18.3334 10.8307 17.7738 10.8307 17.0834V12.0834C10.8307 11.3931 11.3904 10.8334 12.0807 10.8334H17.0807ZM7.9165 10.8334C8.60686 10.8334 9.1665 11.3931 9.1665 12.0834V17.0834C9.1665 17.7738 8.60686 18.3334 7.9165 18.3334H2.9165C2.22615 18.3334 1.6665 17.7738 1.6665 17.0834V12.0834C1.6665 11.3931 2.22615 10.8334 2.9165 10.8334H7.9165ZM16.914 12.2501H12.2473V16.9167H16.914V12.2501ZM7.74984 12.2501H3.08317V16.9167H7.74984V12.2501ZM7.9165 1.66675C8.60686 1.66675 9.1665 2.22639 9.1665 2.91675V7.91675C9.1665 8.6071 8.60686 9.16675 7.9165 9.16675H2.9165C2.22615 9.16675 1.6665 8.6071 1.6665 7.91675V2.91675C1.6665 2.22639 2.22615 1.66675 2.9165 1.66675H7.9165ZM17.0807 1.66675C17.7711 1.66675 18.3307 2.22639 18.3307 2.91675V7.91675C18.3307 8.6071 17.7711 9.16675 17.0807 9.16675H12.0807C11.3904 9.16675 10.8307 8.6071 10.8307 7.91675V2.91675C10.8307 2.22639 11.3904 1.66675 12.0807 1.66675H17.0807ZM7.74984 3.08341H3.08317V7.75008H7.74984V3.08341ZM16.914 3.08341H12.2473V7.75008H16.914V3.08341Z" fill="white"/>
</g>
</svg>
