<svg width="20" height="20" viewBox="0 0 20 20" fill="none" xmlns="http://www.w3.org/2000/svg">
<g opacity="0.8">
<path fill-rule="evenodd" clip-rule="evenodd" d="M0.833496 3.03707C0.833496 2.65241 1.14397 2.34058 1.52695 2.34058H13.0813C13.4643 2.34058 13.7748 2.65241 13.7748 3.03707V13.0947C13.7748 13.4794 13.4643 13.7912 13.0813 13.7912H1.52695C1.14397 13.7912 0.833496 13.4794 0.833496 13.0947V3.03707ZM2.2204 3.73356V12.3982H12.3879V3.73356H2.2204Z" fill="white"/>
<path fill-rule="evenodd" clip-rule="evenodd" d="M12.3879 6.90543C12.3879 6.52076 12.6983 6.20894 13.0813 6.20894H16.1625C16.3464 6.20894 16.5228 6.28232 16.6528 6.41293L18.9637 8.73393C19.0938 8.86455 19.1668 9.0417 19.1668 9.22642V13.0948C19.1668 13.4794 18.8564 13.7912 18.4734 13.7912L13.0813 13.7912C12.6984 13.7912 12.3879 13.4794 12.3879 13.0948V6.90543ZM13.7748 7.60191V12.3983H17.7799V9.51492L15.8753 7.60191H13.7748Z" fill="white"/>
<path fill-rule="evenodd" clip-rule="evenodd" d="M4.99322 13.7912C4.31265 13.7912 3.76094 14.3453 3.76094 15.0289C3.76094 15.7124 4.31265 16.2666 4.99322 16.2666C5.67379 16.2666 6.2255 15.7124 6.2255 15.0289C6.2255 14.3453 5.67379 13.7912 4.99322 13.7912ZM2.37404 15.0289C2.37404 13.576 3.54668 12.3982 4.99322 12.3982C6.43975 12.3982 7.6124 13.576 7.6124 15.0289C7.6124 16.4817 6.43975 17.6595 4.99322 17.6595C3.54668 17.6595 2.37404 16.4817 2.37404 15.0289Z" fill="white"/>
<path fill-rule="evenodd" clip-rule="evenodd" d="M15.0071 13.7912C14.3265 13.7912 13.7748 14.3453 13.7748 15.0289C13.7748 15.7124 14.3265 16.2666 15.0071 16.2666C15.6876 16.2666 16.2393 15.7124 16.2393 15.0289C16.2393 14.3453 15.6876 13.7912 15.0071 13.7912ZM12.3879 15.0289C12.3879 13.576 13.5605 12.3982 15.0071 12.3982C16.4536 12.3982 17.6262 13.576 17.6262 15.0289C17.6262 16.4817 16.4536 17.6595 15.0071 17.6595C13.5605 17.6595 12.3879 16.4817 12.3879 15.0289Z" fill="white"/>
</g>
</svg>
